<svg width="34" height="14" viewBox="0 0 34 14" fill="none" xmlns="http://www.w3.org/2000/svg">
<path id="Vector 1" d="M4.13086 10.3895L4.3183 10.8415L4.79024 10.9709C5.99446 11.301 7.94278 11.796 9.88828 12.212C11.8043 12.6217 13.8156 12.977 15.0965 12.9884C17.436 13.0094 24.7268 12.9972 28.0743 12.9885L28.1223 12.9884L28.1701 12.9836C28.6712 12.9341 29.4512 12.7986 30.2243 12.5468C30.9307 12.3167 31.795 11.9386 32.3724 11.3079C32.6008 11.1148 32.8708 10.7915 32.9662 10.3416C33.1002 9.70937 32.8346 9.11707 32.3202 8.68963L31.7248 9.40618L32.3202 8.68963C31.4497 7.96633 30.3798 7.34068 28.1883 7.08337L28.1302 7.07654H28.0717H22.4347L11.2155 1.11687L10.9955 1H10.7464H7.77556H5.25032L7.09092 2.72888L11.7195 7.07654H8.39368L5.46159 4.32243L5.17295 4.05131H4.77695H3H1.5028L2.07626 5.43433L4.13086 10.3895Z" fill="black" stroke="white" stroke-width="2"/>
</svg>
