<svg width="17" height="16" viewBox="0 0 17 16" fill="none" xmlns="http://www.w3.org/2000/svg">
<g id="Group 1081">
<path id="Vector" d="M7.41248 15.5H16" stroke="black" stroke-miterlimit="10" stroke-linecap="round" stroke-linejoin="round"/>
<g id="Vector_2">
<path d="M7.78805 6.91868L4.95921 6.66834C4.06401 6.58889 3.88019 6.1956 1.86149 4.01392L1.2884 3.96582L2.20665 6.43114L1.70187 6.38709C1.57567 6.37609 1.53129 6.54489 1.64116 6.59948C4.51859 8.0973 6.11056 8.47742 6.11056 8.47742L14.25 9.18706C14.25 9.18706 17.0552 9.43257 16.4648 8.58801C15.8097 7.64872 13.2604 7.39632 13.2604 7.39632L10.1279 7.12087L10.0463 7.10909L7.3351 3.24192L7.01959 3.21438L7.95818 7.51173" fill="black"/>
<path d="M7.78805 6.91868L4.95921 6.66834C4.06401 6.58889 3.88019 6.1956 1.86149 4.01392L1.2884 3.96582L2.20665 6.43114L1.70187 6.38709C1.57567 6.37609 1.53129 6.54489 1.64116 6.59948C4.51859 8.0973 6.11056 8.47742 6.11056 8.47742L14.25 9.18706C14.25 9.18706 17.0552 9.43257 16.4648 8.58801C15.8097 7.64872 13.2604 7.39632 13.2604 7.39632L10.1279 7.12087L10.0463 7.10909L7.3351 3.24192L7.01958 3.21438L7.95818 7.51173" stroke="black" stroke-width="0.5" stroke-miterlimit="10" stroke-linecap="round" stroke-linejoin="round"/>
</g>
</g>
</svg>
