<svg width="20" height="20" viewBox="0 0 20 20" fill="none" xmlns="http://www.w3.org/2000/svg">
    <g id="Calendar" clip-path="url(#clip0_119_222)">
        <g id="Group">
            <g id="Group_2">
                <path id="Vector"
                    d="M6.5408 5.39999C7.1664 5.39999 7.6816 4.88479 7.6816 4.25919V1.94079C7.6816 1.31519 7.1664 0.799988 6.5408 0.799988C5.9152 0.799988 5.4 1.31519 5.4 1.94079V4.22239C5.4 4.88479 5.9152 5.39999 6.5408 5.39999ZM15.7408 3.08159V4.25919C15.7408 5.54719 14.7104 6.54079 13.4592 6.54079C12.1712 6.54079 11.1776 5.51039 11.1776 4.25919V3.08159H8.896V4.25919C8.896 5.54719 7.8656 6.54079 6.6144 6.54079C5.3264 6.54079 4.3328 5.51039 4.3328 4.25919V3.08159H0.799999V19.2H19.2V3.08159H15.7408ZM6.5408 16.8816H4.2592V14.6H6.5408V16.8816ZM6.5408 12.3184H4.2592V9.99999H6.5408V12.3184ZM11.1408 16.8816H8.8592V14.6H11.1408V16.8816ZM11.1408 12.3184H8.8592V9.99999H11.1408V12.3184ZM15.7408 16.8816H13.4592V14.6H15.7408V16.8816ZM15.7408 12.3184H13.4592V9.99999H15.7408V12.3184ZM13.4592 5.39999C14.0848 5.39999 14.6 4.88479 14.6 4.25919V1.94079C14.6 1.31519 14.0848 0.799988 13.4592 0.799988C12.8336 0.799988 12.3184 1.31519 12.3184 1.94079V4.22239C12.2816 4.88479 12.7968 5.39999 13.4592 5.39999Z"
                    fill="black" />
            </g>
        </g>
    </g>
    <defs>
        <clipPath id="clip0_119_222">
            <rect width="18.4" height="18.4" fill="white" transform="translate(0.799999 0.799988)" />
        </clipPath>
    </defs>
</svg>