<svg width="18" height="13" viewBox="0 0 18 13" fill="none" xmlns="http://www.w3.org/2000/svg">
<g id="Group">
<g id="Vector">
<path d="M8.33461 4.43523L5.76146 5.75218C4.88842 6.20136 4.3083 5.91547 1.52262 5.37951L1 5.64495L3.26297 7.02826L2.8092 7.26304C2.69433 7.31919 2.75751 7.47232 2.88387 7.45701C6.24392 7.06397 7.83491 6.5025 7.83491 6.5025L15.227 2.70997C15.227 2.70997 17.7772 1.40328 16.7606 1.0715C15.6348 0.703988 13.3086 1.87285 13.3086 1.87285L10.4598 3.33274L5.74428 1.86269L5.45709 2.01068L8.83431 4.77724" fill="black"/>
<path d="M8.33461 4.43523L5.76146 5.75218C4.88842 6.20136 4.3083 5.91547 1.52262 5.37951L1 5.64495L3.26297 7.02826L2.8092 7.26304C2.69433 7.31919 2.75751 7.47232 2.88387 7.45701C6.24392 7.06397 7.83491 6.5025 7.83491 6.5025L15.227 2.70997C15.227 2.70997 17.7772 1.40328 16.7606 1.0715C15.6348 0.703988 13.3086 1.87285 13.3086 1.87285L10.4598 3.33274L5.74428 1.86269L5.45709 2.01068L8.83431 4.77724" stroke="black" stroke-width="0.5" stroke-miterlimit="10" stroke-linecap="round" stroke-linejoin="round"/>
</g>
<g id="Vector_2">
<path d="M11.6575 4.47635L11.4736 5.94129L11.0371 6.24242L9.98029 5.35939" fill="black"/>
<path d="M11.6575 4.47635L11.4736 5.94129L11.0371 6.24242L9.98029 5.35939" stroke="black" stroke-miterlimit="10" stroke-linecap="round" stroke-linejoin="round"/>
</g>
<path id="Vector_3" d="M1.33313 12H10.4483" stroke="black" stroke-miterlimit="10" stroke-linecap="round" stroke-linejoin="round"/>
</g>
</svg>
